<svg xmlns="http://www.w3.org/2000/svg" xmlns:xlink="http://www.w3.org/1999/xlink" width="400" zoomAndPan="magnify" viewBox="0 0 300 299.999988" height="400" preserveAspectRatio="xMidYMid meet" version="1.0"><defs><clipPath id="046173963f"><path d="M 4.5 2 L 294 2 L 294 298 L 4.5 298 Z M 4.5 2 " clip-rule="nonzero"/></clipPath></defs><g clip-path="url(#046173963f)"><path fill="#18191b" d="M 262.847656 297.164062 C 278.683594 231.824219 292.933594 167.992188 293.449219 105.5 C 293.945312 43.570312 280.253906 23.761719 269.917969 14.234375 C 267.792969 12.273438 265.496094 10.542969 263.09375 9.078125 C 254.710938 3.960938 244.730469 1.789062 232.578125 2.449219 C 205.285156 3.917969 165.273438 21.78125 116.863281 54.113281 C 66.507812 87.738281 23.945312 125.414062 12.101562 136.167969 C 11.761719 136.476562 11.21875 136.945312 10.546875 137.539062 C 8.507812 139.320312 6.734375 140.914062 5.289062 142.257812 C 4.863281 142.648438 4.828125 143.304688 5.207031 143.792969 C 5.316406 143.925781 5.4375 144.042969 5.585938 144.132812 C 5.949219 144.355469 6.398438 144.398438 6.792969 144.21875 C 9.644531 142.90625 12.636719 141.339844 15.535156 139.835938 C 18.820312 138.125 22.195312 136.371094 25.242188 135.027344 C 50.136719 124.074219 82.828125 110.78125 114.804688 105.085938 C 150.316406 98.753906 174.789062 101.207031 194.1875 113.050781 C 210.808594 123.195312 222.21875 134.445312 231.179688 149.554688 C 240.867188 165.875 247.863281 187.160156 253.179688 216.558594 C 258 243.207031 259.238281 270.4375 260.4375 296.777344 C 260.453125 297.195312 260.707031 297.578125 261.070312 297.800781 C 261.21875 297.894531 261.386719 297.953125 261.5625 297.980469 C 262.175781 298.082031 262.738281 297.71875 262.878906 297.15625 Z M 262.847656 297.164062 " fill-opacity="1" fill-rule="nonzero"/></g><path fill="#18191b" d="M 218.679688 261.652344 C 218.199219 233.3125 217.066406 166.9375 180.386719 144.550781 C 179.617188 144.078125 178.8125 143.617188 178.011719 143.195312 C 160.402344 133.761719 136.609375 133.542969 107.277344 142.5625 C 83.972656 149.722656 63.863281 160.679688 55.28125 165.363281 C 53.734375 166.207031 52.597656 166.820312 51.9375 167.148438 C 51.417969 167.398438 51.199219 168 51.417969 168.554688 C 51.527344 168.824219 51.722656 169.054688 51.960938 169.199219 C 52.199219 169.34375 52.515625 169.425781 52.824219 169.386719 C 53.175781 169.34375 53.542969 169.320312 53.921875 169.296875 C 54.585938 169.253906 55.261719 169.21875 55.945312 169.050781 C 111.179688 155.90625 139.171875 166.496094 157.382812 177.191406 C 157.628906 177.339844 157.878906 177.492188 158.125 177.640625 C 187.695312 195.691406 208.25 248.011719 214.996094 265.214844 C 215.625 266.789062 216.109375 268.039062 216.460938 268.890625 C 216.574219 269.148438 216.761719 269.371094 216.988281 269.511719 C 217.246094 269.667969 217.550781 269.746094 217.851562 269.699219 C 218.429688 269.617188 218.839844 269.148438 218.828125 268.570312 C 218.761719 266.699219 218.71875 264.363281 218.671875 261.664062 Z M 218.679688 261.652344 " fill-opacity="1" fill-rule="nonzero"/></svg>