<svg xmlns="http://www.w3.org/2000/svg" xmlns:xlink="http://www.w3.org/1999/xlink" width="400" zoomAndPan="magnify" viewBox="0 0 300 299.999988" height="400" preserveAspectRatio="xMidYMid meet" version="1.0"><defs><clipPath id="8119028e86"><path d="M 3 3.777344 L 297 3.777344 L 297 296.277344 L 3 296.277344 Z M 3 3.777344 " clip-rule="nonzero"/></clipPath></defs><g clip-path="url(#8119028e86)"><path fill="#000000" d="M 238.699219 265.347656 C 239.089844 265.347656 239.257812 265.84375 238.949219 266.078125 C 214.3125 284.980469 183.480469 296.21875 150.027344 296.21875 C 116.570312 296.21875 85.742188 284.984375 61.101562 266.078125 C 60.792969 265.84375 60.964844 265.347656 61.351562 265.347656 L 238.703125 265.347656 Z M 276.84375 222.835938 C 271.734375 231.710938 265.722656 239.996094 258.933594 247.570312 C 258.675781 247.855469 258.308594 248.019531 257.921875 248.019531 L 42.132812 248.019531 C 41.746094 248.019531 41.378906 247.855469 41.121094 247.570312 C 34.332031 239.996094 28.320312 231.710938 23.210938 222.835938 C 23.003906 222.476562 23.265625 222.023438 23.683594 222.023438 L 276.371094 222.023438 C 276.789062 222.023438 277.050781 222.476562 276.84375 222.835938 Z M 293.355469 179.078125 C 291.617188 187.6875 289.121094 196.023438 285.945312 204.011719 C 285.78125 204.425781 285.378906 204.695312 284.9375 204.695312 L 15.117188 204.695312 C 14.671875 204.695312 14.269531 204.425781 14.105469 204.011719 C 10.929688 196.023438 8.4375 187.691406 6.699219 179.078125 C 6.628906 178.742188 6.886719 178.429688 7.230469 178.429688 L 292.820312 178.429688 C 293.160156 178.429688 293.421875 178.742188 293.355469 179.078125 Z M 149.039062 3.78125 C 230.246094 3.242188 296.246094 68.914062 296.246094 149.996094 C 296.246094 153.5625 296.121094 157.09375 295.871094 160.59375 C 295.851562 160.878906 295.613281 161.097656 295.328125 161.097656 L 4.726562 161.097656 C 4.441406 161.097656 4.203125 160.878906 4.183594 160.59375 C 3.9375 157.140625 3.808594 153.652344 3.804688 150.128906 C 3.734375 70.574219 69.484375 4.308594 149.039062 3.78125 Z M 149.039062 3.78125 " fill-opacity="1" fill-rule="nonzero"/></g></svg>