<svg width="512" height="512" viewBox="0 0 512 512" fill="none" xmlns="http://www.w3.org/2000/svg">
  <defs>
    <linearGradient id="goldD" x1="0%" y1="0%" x2="100%" y2="100%">
      <stop offset="0%" style="stop-color:#d4b896"/>
      <stop offset="100%" style="stop-color:#a38968"/>
    </linearGradient>
  </defs>

  <!-- Background -->
  <rect width="512" height="512" rx="112" fill="#0c0b0a"/>

  <!-- Hexagon shape - tech/web3 inspired -->
  <path
    d="M 256 80 L 400 160 L 400 320 L 256 400 L 112 320 L 112 160 Z"
    fill="none"
    stroke="url(#goldD)"
    stroke-width="8"
    opacity="0.3"
  />

  <!-- Inner hexagon -->
  <path
    d="M 256 130 L 360 190 L 360 310 L 256 370 L 152 310 L 152 190 Z"
    fill="none"
    stroke="url(#goldD)"
    stroke-width="12"
    opacity="0.6"
  />

  <!-- Center filled hexagon -->
  <path
    d="M 256 180 L 320 220 L 320 300 L 256 340 L 192 300 L 192 220 Z"
    fill="url(#goldD)"
  />

  <!-- Connecting lines from center -->
  <line x1="256" y1="180" x2="256" y2="80" stroke="url(#goldD)" stroke-width="4" opacity="0.4"/>
  <line x1="320" y1="220" x2="400" y2="160" stroke="url(#goldD)" stroke-width="4" opacity="0.4"/>
  <line x1="320" y1="300" x2="400" y2="320" stroke="url(#goldD)" stroke-width="4" opacity="0.4"/>
  <line x1="256" y1="340" x2="256" y2="400" stroke="url(#goldD)" stroke-width="4" opacity="0.4"/>
  <line x1="192" y1="300" x2="112" y2="320" stroke="url(#goldD)" stroke-width="4" opacity="0.4"/>
  <line x1="192" y1="220" x2="112" y2="160" stroke="url(#goldD)" stroke-width="4" opacity="0.4"/>
</svg>
